<mxfile host="app.diagrams.net" modified="2023-12-27T17:31:01.643Z" agent="Mozilla/5.0 (X11; Linux x86_64; rv:109.0) Gecko/20100101 Firefox/115.0" etag="RMQl8VOyYKmCNPPE35Xm" version="22.1.15" type="github">
  <diagram name="Page-1" id="audjfXoT1PEJx59q8T1H">
    <mxGraphModel dx="1183" dy="702" grid="1" gridSize="10" guides="1" tooltips="1" connect="1" arrows="1" fold="1" page="1" pageScale="1" pageWidth="1169" pageHeight="827" math="0" shadow="0">
      <root>
        <mxCell id="0" />
        <mxCell id="1" parent="0" />
        <mxCell id="riyMo2SwUsojybsi9utR-1" value="" style="whiteSpace=wrap;html=1;" vertex="1" parent="1">
          <mxGeometry x="280" y="140" width="316" height="360" as="geometry" />
        </mxCell>
        <mxCell id="riyMo2SwUsojybsi9utR-2" value="" style="rounded=0;whiteSpace=wrap;html=1;" vertex="1" parent="1">
          <mxGeometry x="290" y="149" width="296" height="340" as="geometry" />
        </mxCell>
        <mxCell id="riyMo2SwUsojybsi9utR-3" value="" style="rounded=0;whiteSpace=wrap;html=1;" vertex="1" parent="1">
          <mxGeometry x="290" y="149" width="148" height="340" as="geometry" />
        </mxCell>
        <mxCell id="riyMo2SwUsojybsi9utR-4" value="" style="rounded=0;whiteSpace=wrap;html=1;" vertex="1" parent="1">
          <mxGeometry x="438" y="149" width="148" height="340" as="geometry" />
        </mxCell>
        <mxCell id="riyMo2SwUsojybsi9utR-5" value="" style="rounded=0;whiteSpace=wrap;html=1;" vertex="1" parent="1">
          <mxGeometry x="300" y="159" width="128" height="320" as="geometry" />
        </mxCell>
        <mxCell id="riyMo2SwUsojybsi9utR-6" value="" style="rounded=0;whiteSpace=wrap;html=1;" vertex="1" parent="1">
          <mxGeometry x="448" y="159" width="128" height="320" as="geometry" />
        </mxCell>
        <mxCell id="riyMo2SwUsojybsi9utR-7" value="" style="rounded=1;whiteSpace=wrap;html=1;" vertex="1" parent="1">
          <mxGeometry x="431" y="371" width="4" height="20" as="geometry" />
        </mxCell>
        <mxCell id="riyMo2SwUsojybsi9utR-8" value="&lt;div&gt;binnenaanzicht&lt;/div&gt;" style="text;html=1;strokeColor=none;fillColor=none;align=center;verticalAlign=middle;whiteSpace=wrap;rounded=0;" vertex="1" parent="1">
          <mxGeometry x="280" y="535" width="316" height="30" as="geometry" />
        </mxCell>
        <mxCell id="riyMo2SwUsojybsi9utR-9" value="" style="whiteSpace=wrap;html=1;" vertex="1" parent="1">
          <mxGeometry x="652" y="140" width="316" height="360" as="geometry" />
        </mxCell>
        <mxCell id="riyMo2SwUsojybsi9utR-10" value="" style="rounded=0;whiteSpace=wrap;html=1;" vertex="1" parent="1">
          <mxGeometry x="662" y="149" width="296" height="340" as="geometry" />
        </mxCell>
        <mxCell id="riyMo2SwUsojybsi9utR-11" value="" style="rounded=0;whiteSpace=wrap;html=1;" vertex="1" parent="1">
          <mxGeometry x="662" y="149" width="148" height="340" as="geometry" />
        </mxCell>
        <mxCell id="riyMo2SwUsojybsi9utR-12" value="" style="rounded=0;whiteSpace=wrap;html=1;" vertex="1" parent="1">
          <mxGeometry x="810" y="149" width="148" height="340" as="geometry" />
        </mxCell>
        <mxCell id="riyMo2SwUsojybsi9utR-13" value="" style="rounded=0;whiteSpace=wrap;html=1;" vertex="1" parent="1">
          <mxGeometry x="672" y="159" width="128" height="320" as="geometry" />
        </mxCell>
        <mxCell id="riyMo2SwUsojybsi9utR-14" value="" style="rounded=0;whiteSpace=wrap;html=1;" vertex="1" parent="1">
          <mxGeometry x="820" y="159" width="128" height="320" as="geometry" />
        </mxCell>
        <mxCell id="riyMo2SwUsojybsi9utR-16" value="buitenaanzicht" style="text;html=1;strokeColor=none;fillColor=none;align=center;verticalAlign=middle;whiteSpace=wrap;rounded=0;" vertex="1" parent="1">
          <mxGeometry x="652" y="535" width="316" height="30" as="geometry" />
        </mxCell>
        <mxCell id="riyMo2SwUsojybsi9utR-17" value="158" style="shape=dimension;whiteSpace=wrap;html=1;align=center;points=[];verticalAlign=bottom;spacingBottom=3;labelBackgroundColor=none;fillColor=#f5f5f5;fontColor=#333333;strokeColor=#999999;" vertex="1" parent="1">
          <mxGeometry x="280" y="508" width="316" height="19" as="geometry" />
        </mxCell>
        <mxCell id="riyMo2SwUsojybsi9utR-19" value="158" style="shape=dimension;whiteSpace=wrap;html=1;align=center;points=[];verticalAlign=bottom;spacingBottom=3;labelBackgroundColor=none;fillColor=#f5f5f5;fontColor=#333333;strokeColor=#999999;" vertex="1" parent="1">
          <mxGeometry x="652" y="508" width="316" height="19" as="geometry" />
        </mxCell>
        <mxCell id="riyMo2SwUsojybsi9utR-20" value="180" style="shape=dimension;direction=south;whiteSpace=wrap;html=1;align=center;points=[];verticalAlign=top;labelBackgroundColor=none;horizontal=0;spacingTop=-15;strokeColor=#999999;" vertex="1" parent="1">
          <mxGeometry x="245" y="140" width="19" height="360" as="geometry" />
        </mxCell>
        <mxCell id="riyMo2SwUsojybsi9utR-23" value="180" style="shape=dimension;direction=north;whiteSpace=wrap;html=1;align=center;points=[];verticalAlign=middle;labelBackgroundColor=none;horizontal=0;spacingBottom=3;strokeColor=#999999;labelPosition=center;verticalLabelPosition=middle;flipV=1;flipH=0;" vertex="1" parent="1">
          <mxGeometry x="980" y="140" width="19" height="360" as="geometry" />
        </mxCell>
        <mxCell id="riyMo2SwUsojybsi9utR-25" value="&lt;div&gt;hendel op het linker raam&lt;/div&gt;&lt;div&gt;naar buiten draaiend&lt;br&gt;&lt;/div&gt;" style="text;html=1;strokeColor=none;fillColor=none;align=center;verticalAlign=middle;whiteSpace=wrap;rounded=0;" vertex="1" parent="1">
          <mxGeometry x="280" y="574" width="316" height="30" as="geometry" />
        </mxCell>
      </root>
    </mxGraphModel>
  </diagram>
</mxfile>
